HIERARCHY
ROOT root
{
	OFFSET 0.000000 0.000000 0.000000
	CHANNELS 6 Xposition Yposition Zposition Zrotation Yrotation Xrotation
	JOINT lhip
	{
		OFFSET 0.058581 -0.082280 -0.017664
		CHANNELS 3 Zrotation Yrotation Xrotation
		JOINT lknee
		{
			OFFSET 0.043451 -0.386469 0.008037
			CHANNELS 3 Zrotation Yrotation Xrotation
			JOINT lankle
			{
				OFFSET -0.014790 -0.426874 -0.037428
				CHANNELS 3 Zrotation Yrotation Xrotation
				JOINT ltoe
				{
					OFFSET 0.041054 -0.060286 0.122042
					CHANNELS 3 Zrotation Yrotation Xrotation
					End Site
					{
						OFFSET 0.000000 0.000000 0.000000
					}
				}
			}
		}
	}
	JOINT rhip
	{
		OFFSET -0.060310 -0.090513 -0.013543
		CHANNELS 3 Zrotation Yrotation Xrotation
		JOINT rknee
		{
			OFFSET -0.043257 -0.383688 -0.004843
			CHANNELS 3 Zrotation Yrotation Xrotation
			JOINT rankle
			{
				OFFSET 0.019056 -0.420046 -0.034562
				CHANNELS 3 Zrotation Yrotation Xrotation
				JOINT rtoe
				{
					OFFSET -0.034840 -0.062106 0.130323
					CHANNELS 3 Zrotation Yrotation Xrotation
					End Site
					{
						OFFSET 0.000000 0.000000 0.000000
					}
				}
			}
		}
	}
	JOINT lowerback
	{
		OFFSET 0.004439 0.124404 -0.038385
		CHANNELS 3 Zrotation Yrotation Xrotation
		JOINT upperback
		{
			OFFSET 0.004488 0.137956 0.026820
			CHANNELS 3 Zrotation Yrotation Xrotation
			JOINT chest
			{
				OFFSET -0.002265 0.056032 0.002855
				CHANNELS 3 Zrotation Yrotation Xrotation
				JOINT lowerneck
				{
					OFFSET -0.013390 0.211636 -0.033468
					CHANNELS 3 Zrotation Yrotation Xrotation
					JOINT upperneck
					{
						OFFSET 0.010113 0.088937 0.050410
						CHANNELS 3 Zrotation Yrotation Xrotation
						End Site
						{
							OFFSET 0.000000 0.000000 0.000000
						}
					}
				}
				JOINT lclavicle
				{
					OFFSET 0.071702 0.114000 -0.018898
					CHANNELS 3 Zrotation Yrotation Xrotation
					JOINT lshoulder
					{
						OFFSET 0.122921 0.045205 -0.019046
						CHANNELS 3 Zrotation Yrotation Xrotation
						JOINT lelbow
						{
							OFFSET 0.255332 -0.015649 -0.022946
							CHANNELS 3 Zrotation Yrotation Xrotation
							JOINT lwrist
							{
								OFFSET 0.265709 0.012698 -0.007375
								CHANNELS 3 Zrotation Yrotation Xrotation
								End Site
								{
									OFFSET 0.000000 0.000000 0.000000
								}
							}
						}
					}
				}
				JOINT rclavicle
				{
					OFFSET -0.082954 0.112472 -0.023707
					CHANNELS 3 Zrotation Yrotation Xrotation
					JOINT rshoulder
					{
						OFFSET -0.113228 0.046853 -0.008472
						CHANNELS 3 Zrotation Yrotation Xrotation
						JOINT relbow
						{
							OFFSET -0.260127 -0.014369 -0.031269
							CHANNELS 3 Zrotation Yrotation Xrotation
							JOINT rwrist
							{
								OFFSET -0.269108 0.006794 -0.006027
								CHANNELS 3 Zrotation Yrotation Xrotation
								End Site
								{
									OFFSET 0.000000 0.000000 0.000000
								}
							}
						}
					}
				}
			}
		}
	}
}
MOTION
Frames: 14
Frame Time: 0.033333
-0.220737 -0.734201 0.865826 -56.272310 -11.384953 80.863311 13.137343 11.856056 -28.324389 -7.706388 14.610502 63.296469 1.080195 8.531739 -12.440495 0.000000 -0.000000 0.000000 -6.207630 -5.654623 -46.732018 5.389686 -13.569357 40.305987 13.704043 4.736491 -4.684853 0.000000 -0.000000 0.000000 -4.992461 -3.213399 45.187990 -5.623776 -2.436271 -2.794408 -2.009248 -4.481512 3.950688 -10.453255 10.628089 -2.501447 -2.036564 20.267881 -8.683970 -31.069741 0.834250 -0.487394 -30.605760 0.746658 -2.104360 34.102247 -46.866568 -45.461548 24.393597 -5.585757 -19.110195 23.329825 1.268580 2.410699 49.385981 -2.619726 6.095621 -25.876213 40.151482 -40.974635 -17.066583 6.341134 -12.287190 
-0.259573 -0.821206 0.840047 -52.324130 -13.081445 78.363062 14.615848 11.577547 -28.045662 -10.582430 12.687756 50.895377 0.574988 8.909098 -12.736235 0.000000 -0.000000 0.000000 -7.496787 -5.470609 -43.805680 5.369361 -9.745464 42.320498 6.881337 5.270249 -3.108073 0.000000 -0.000000 0.000000 -5.292362 -2.658272 45.597047 -5.946642 -2.804019 -2.118018 -2.301891 -4.328098 3.917610 -10.505061 10.204162 -1.387397 0.722892 17.919737 -8.494657 -31.215059 -0.019063 -0.922450 -28.426531 0.423700 -1.708223 35.555499 -49.550805 -45.319144 23.403326 -5.405023 -20.882124 24.608852 1.576923 2.922698 51.156410 -3.162875 5.234440 -24.421551 36.734869 -40.184791 -18.330777 4.348710 -15.327607 
-0.292885 -0.904508 0.807549 -49.946093 -12.841139 76.238003 16.734161 12.692647 -28.828400 -11.748061 8.459141 39.164793 -3.491778 6.310254 -10.563234 0.000000 -0.000000 0.000000 -9.826848 -4.017714 -50.789026 2.793851 -6.855395 64.245950 2.708206 1.144724 -12.358193 0.000000 -0.000000 0.000000 -5.599098 -2.733452 46.873513 -5.967550 -0.787231 -1.913366 -2.249126 -3.511428 3.265237 -8.720096 9.998556 -2.461574 1.781583 14.627164 -7.142501 -31.147064 -1.169132 -1.915135 -26.867470 -0.087499 -0.465916 38.513781 -51.941256 -45.798550 23.142178 -4.957703 -21.949875 24.994057 3.387972 2.446571 52.704483 -2.901811 5.043338 -23.854770 30.909508 -41.554465 -18.764704 4.085291 -12.223615 
-0.320592 -0.983929 0.781654 -50.293662 -9.451889 72.657086 20.189217 15.364264 -26.862824 -10.508342 1.747612 27.646163 -5.822843 4.734334 -8.264763 0.000000 -0.000000 0.000000 -10.190162 -5.181196 -48.452027 1.520802 -9.493919 72.097186 -2.762179 -1.299057 -16.748768 0.000000 -0.000000 0.000000 -4.061420 -3.601784 51.257501 -6.429053 1.294419 -0.060364 -1.717807 -1.961765 1.803988 -8.910049 8.769388 -4.443939 2.666696 13.583840 -10.070039 -32.513037 -3.606899 -2.219943 -24.790289 0.004661 -1.316202 43.756675 -54.167571 -50.442228 24.511721 -3.744454 -24.224106 25.991979 8.210704 3.011983 49.597335 -0.940725 2.559977 -22.113747 28.561279 -42.091520 -20.577967 4.395912 -10.708481 
-0.343736 -1.061166 0.753214 -49.195887 -8.288195 71.703749 18.403649 16.863974 -30.883413 -9.934525 -2.047309 25.959231 -5.548854 4.404414 -6.435266 0.000000 -0.000000 0.000000 -11.152977 -9.478391 -50.060738 0.463725 -7.828403 81.561708 -4.451140 -5.218317 -22.001022 0.000000 -0.000000 0.000000 -3.684847 -2.486619 51.991257 -6.293540 0.654677 1.418764 -0.709508 -2.003887 0.619416 -6.982395 7.449707 -5.537178 3.549529 14.579121 -9.572190 -32.583238 -5.472876 -1.544943 -23.049457 0.817518 -2.433047 45.687331 -55.801693 -51.761746 26.724323 -3.149068 -24.470723 26.050470 12.395166 4.420640 46.807640 1.164431 1.187126 -22.156796 29.273972 -44.472594 -22.444417 5.435189 -9.476606 
-0.359909 -1.135421 0.727780 -52.023830 -6.952855 72.269443 19.174469 16.224611 -33.431364 -11.771771 -0.714810 30.778411 -6.632420 1.861840 -2.197700 0.000000 -0.000000 0.000000 -13.923815 -9.581024 -52.316171 -1.738452 -8.792792 89.988770 -3.287911 -4.540962 -24.574286 0.000000 -0.000000 0.000000 -3.224659 -1.070672 53.374529 -6.259937 1.308862 0.330826 -0.835362 -1.459503 -0.730768 -5.179686 7.970543 -4.690996 3.973150 14.700392 -10.532170 -31.839675 -6.918424 -1.157180 -22.278764 1.497582 -2.105818 45.333008 -55.296534 -52.335833 26.273052 -3.537271 -24.352067 25.106280 13.545430 3.427845 44.985415 2.662948 1.197560 -24.959598 33.937245 -45.369043 -21.087544 5.485463 -10.164891 
-0.372050 -1.206137 0.707915 -56.140253 -6.269551 71.168579 21.950510 16.192256 -39.329856 -11.889011 3.322228 50.907984 -7.364519 0.972918 -0.288762 0.000000 -0.000000 0.000000 -15.460871 -10.110948 -52.413367 -1.027605 -6.848152 95.019586 -3.289258 -4.568252 -25.543434 0.000000 -0.000000 0.000000 -3.856040 1.110995 55.700719 -6.015323 1.639668 1.066811 -0.490525 -0.875487 -2.134335 -4.248803 8.468977 -5.266696 4.506547 16.389452 -12.083346 -32.586031 -9.018441 0.327253 -19.880073 2.507532 -3.260581 44.918861 -53.872451 -54.036105 26.589420 -3.705135 -25.006750 25.769727 16.238546 3.892380 39.953775 4.987018 -0.206792 -28.435712 38.446727 -47.618554 -19.062377 6.272846 -10.267227 
-0.378719 -1.267256 0.698592 -59.196244 -7.447841 70.635552 20.715219 17.674585 -40.704118 -10.983803 4.708319 59.436759 -2.630822 1.362735 -5.075138 0.000000 -0.000000 0.000000 -17.505723 -12.185978 -52.622804 0.454671 -3.993953 96.769143 -2.358548 -5.507946 -25.618207 0.000000 -0.000000 0.000000 -3.864363 3.667758 58.194921 -6.914449 0.955792 2.378608 -0.369239 -1.503027 -2.773957 -4.023664 9.365438 -8.050944 4.209383 16.851334 -12.774593 -32.535162 -11.836546 0.805684 -15.823517 2.421515 -4.451589 40.148203 -52.676565 -51.953622 29.202322 -3.544407 -23.401921 26.173025 19.173851 3.355972 36.331734 7.625005 0.361406 -32.310201 40.205133 -52.435151 -20.692395 6.356696 -10.149136 
-0.381139 -1.326164 0.695846 -63.587712 -6.964315 72.011040 21.879422 19.015638 -41.949744 -10.833924 7.304033 66.539733 -2.422921 2.357870 -10.485853 0.000000 -0.000000 0.000000 -19.000213 -12.827027 -53.714185 0.498158 -3.678135 96.679651 -1.062866 -5.451447 -25.219335 0.000000 -0.000000 0.000000 -3.119749 3.258944 59.788696 -8.020674 1.795082 0.532090 -1.054981 -0.923469 -2.798422 -5.762095 9.167654 -9.142544 2.528869 18.501186 -12.032860 -32.268345 -12.926567 0.790753 -15.967804 2.034261 -5.483503 37.785619 -51.574269 -49.826833 30.521382 -3.335529 -24.600220 24.359600 20.808424 3.458486 34.946083 9.794562 -0.565221 -33.520750 41.395259 -52.660323 -21.011080 6.239058 -11.521171 
-0.382601 -1.375074 0.699154 -65.542878 -6.673786 73.639898 22.111234 19.367805 -42.822836 -10.398046 10.803810 71.407158 -1.454913 1.111315 -15.535126 0.000000 -0.000000 0.000000 -20.590481 -14.588384 -53.710845 0.010919 -3.581834 95.216860 0.275635 -7.113289 -25.214802 0.000000 -0.000000 0.000000 -2.833915 2.881219 60.590636 -8.267653 1.627655 -0.014705 -1.149693 -0.858308 -3.051295 -7.149367 8.932659 -11.124450 1.396906 19.739315 -11.232949 -32.214916 -13.029283 0.637507 -17.013891 1.271222 -6.388853 40.962378 -52.144906 -52.911423 29.926492 -3.495838 -25.655092 24.260524 21.778541 3.581102 32.646646 11.601977 -1.192876 -34.661690 41.743033 -54.937303 -19.935155 6.678691 -10.455610 
-0.383449 -1.419503 0.703721 -67.507075 -5.967323 75.828563 21.545570 20.714099 -44.470283 -9.822553 12.902291 75.640028 -0.517035 0.329934 -18.957247 0.000000 -0.000000 0.000000 -21.881895 -15.852797 -53.598690 0.073604 -3.307306 92.933682 1.092556 -7.062057 -25.224869 0.000000 -0.000000 0.000000 -1.369985 2.399621 60.188829 -8.494048 1.692162 -0.467065 -1.579223 -0.952638 -3.091371 -7.982631 8.670552 -12.649125 -0.244485 20.619282 -10.232626 -33.276377 -12.889043 0.906511 -17.468142 0.682723 -7.132431 44.306901 -53.592097 -54.869496 29.102745 -4.605021 -25.215347 24.837287 21.643401 3.692896 30.425495 12.282292 -2.146806 -35.571187 42.276999 -56.361187 -20.243749 7.105855 -10.465340 
-0.384636 -1.457671 0.709005 -69.355160 -5.712736 78.256628 20.701920 20.682908 -45.787915 -9.055161 14.807174 78.426063 -0.202352 0.229476 -21.484438 0.000000 -0.000000 0.000000 -23.533136 -16.748041 -53.807110 -0.253909 -3.289090 90.262405 2.014850 -6.185996 -25.104511 0.000000 -0.000000 0.000000 -0.817862 2.562479 59.029777 -8.533394 1.830118 -1.025833 -1.892829 -0.893869 -2.571910 -8.338331 9.333516 -13.887129 -1.550071 20.326517 -9.780128 -33.395112 -12.226732 0.957115 -18.580654 0.002392 -6.815395 47.837712 -55.125221 -56.994912 30.070003 -5.303791 -25.883744 25.406874 20.810567 4.221189 29.269555 13.126415 -2.977494 -37.238967 42.823011 -58.770093 -21.374373 7.277744 -12.595251 
-0.386553 -1.488675 0.716098 -71.432791 -5.808382 80.181511 19.758205 20.992237 -45.269018 -8.359033 16.481586 79.021284 0.926497 0.403063 -25.166096 0.000000 -0.000000 0.000000 -24.674057 -17.475246 -53.846294 -0.115849 -2.685575 87.456437 3.124221 -4.333154 -24.513257 0.000000 -0.000000 0.000000 -1.339928 3.450331 58.521490 -8.758141 2.043817 -1.734027 -1.604184 -0.738371 -2.399541 -8.912648 9.785894 -14.212069 -2.374059 20.353660 -10.793117 -33.358567 -11.445940 1.015516 -19.471078 -0.102809 -6.501255 51.289939 -56.592821 -59.592189 30.811652 -5.755264 -26.981821 25.766253 20.069491 4.277687 29.223931 13.556286 -3.324449 -38.935877 42.919233 -61.012747 -21.641173 7.428540 -13.027347 
-0.388509 -1.515878 0.722206 -73.513426 -4.917733 81.684002 18.743529 21.808493 -44.859583 -6.982480 17.007109 79.188622 2.757196 1.503098 -28.344595 0.000000 -0.000000 0.000000 -24.954828 -17.589231 -53.514612 0.080331 -2.564876 84.727911 4.030019 -2.803880 -23.850759 0.000000 -0.000000 0.000000 -1.365503 3.105390 57.572177 -9.246311 2.263186 -1.472842 -2.049942 0.056838 -2.532697 -9.756935 10.252701 -14.880595 -2.051446 19.972375 -12.175218 -32.490278 -10.695142 0.358981 -20.116335 0.647136 -5.809845 52.981576 -58.039004 -61.042541 32.748676 -6.316998 -26.690341 25.885392 20.036377 4.709203 29.484241 13.694106 -3.994987 -39.634504 42.877684 -62.708915 -22.266578 8.127650 -12.059528 
